<?xml version="1.0" encoding="UTF-8"?><!DOCTYPE svg PUBLIC "-//W3C//DTD SVG 1.0//EN" "http://www.w3.org/TR/2001/REC-SVG-20010904/DTD/svg10.dtd" []><svg xmlns="http://www.w3.org/2000/svg" xmlns:xlink="http://www.w3.org/1999/xlink" data-name="Layer 1" height="225" preserveAspectRatio="xMidYMid meet" version="1.0" viewBox="0.0 0.0 225.2 225.2" width="225" zoomAndPan="magnify"><g id="change1_1"><path d="M0 0H225.24V225.24H0z"/></g><g><g id="change2_1"><path d="M97.67,96.52v-6.11c-2.05-.28-4.13-.45-6.25-.45-25.57,0-46.37,20.8-46.37,46.37,0,15.69,7.84,29.57,19.8,37.97-7.72-8.29-12.3-19.39-12.3-31.58,0-25.2,20.06-45.62,45.12-46.2Z" fill="#25f4ee"/></g><g id="change2_2"><path d="M98.76,164.03c11.41,0,20.85-9.21,21.27-20.51l.1-100.83h18.28s-.03-.14-.03-.14c-.38-2.07-.59-4.21-.59-6.39h-25.19l-.04,100.97c-.42,11.31-9.73,20.38-21.14,20.38-3.55,0-6.88-.89-9.82-2.43,3.85,5.33,10.1,8.96,17.17,8.96Z" fill="#25f4ee"/></g><g id="change2_3"><path d="M172.85,77.11v-5.92c-7.04,0-13.59-2.09-19.09-5.68,4.89,5.62,11.54,9.98,19.09,11.59Z" fill="#25f4ee"/></g><g id="change3_1"><path d="M153.76,65.52c-5.36-6.16-8.62-14.19-8.62-22.98h-6.86c1.78,9.6,7.59,17.84,15.48,22.98Z" fill="#fe2c55"/></g><g id="change3_2"><path d="M91.42,114.95c-11.68,0-21.32,9.69-21.32,21.37,0,8.13,4.75,15.2,11.49,18.75-2.51-3.48-4.01-7.74-4.01-12.35,0-11.68,9.5-21.18,21.18-21.18,2.18,0,4.27.36,6.25.98v-25.72c-2.05-.28-4.13-.45-6.25-.45-.37,0-.73.02-1.09.03h-.1s-.07,19.47-.07,19.47c-1.98-.62-3.9-.89-6.08-.89Z" fill="#fe2c55"/></g><g id="change3_3"><path d="M172.85,76.81l-.12-.02v19.45c-13.07,0-25.21-4.3-35.09-11.39v51.47c0,25.57-20.65,46.24-46.22,46.24-9.88,0-19.04-2.99-26.58-8.28,8.47,9.09,20.54,14.8,33.92,14.8,25.57,0,46.37-20.8,46.37-46.37v-51.2c9.88,7.09,21.99,11.27,35.05,11.27v-25.19c-2.52,0-4.97-.27-7.34-.78Z" fill="#fe2c55"/></g><g id="change4_1"><path d="M137.79,136.32v-51.2c9.88,7.09,21.99,11.27,35.05,11.27v-19.58c-7.55-1.62-14.19-5.67-19.09-11.29-7.89-5.15-13.59-13.38-15.37-22.98h-18.45l-.04,100.97c-.42,11.31-9.73,20.38-21.14,20.38-7.07,0-13.32-3.49-17.17-8.83-6.74-3.55-11.35-10.61-11.35-18.75,0-11.68,9.5-21.18,21.18-21.18,2.18,0,4.27.36,6.25.98v-19.75c-25.07.59-45.28,21.14-45.28,46.35,0,12.19,4.74,23.29,12.45,31.58,7.53,5.29,16.69,8.4,26.58,8.4,25.57,0,46.37-20.8,46.37-46.37Z" fill="#fff"/></g></g></svg>