<?xml version="1.0" encoding="UTF-8"?><!DOCTYPE svg PUBLIC "-//W3C//DTD SVG 1.0//EN" "http://www.w3.org/TR/2001/REC-SVG-20010904/DTD/svg10.dtd" []><svg xmlns="http://www.w3.org/2000/svg" xmlns:xlink="http://www.w3.org/1999/xlink" height="515.8" preserveAspectRatio="xMidYMid meet" version="1.0" viewBox="0.0 0.2 689.0 515.8" width="689.0" zoomAndPan="magnify"><g id="change1_1"><path d="M 634.94 516.00 L 53.39 516.00 Q 46.77 515.14 43.75 514.51 C 25.12 510.59 9.66 496.00 3.45 478.58 C 1.59 473.37 0.90 467.92 0.00 462.39 L 0.00 52.88 C 0.97 50.25 0.90 47.29 1.44 45.05 C 2.18 41.99 2.93 38.57 4.15 35.73 Q 15.93 8.17 45.27 1.67 Q 47.97 1.07 50.68 0.95 C 53.11 0.85 55.48 0.28 57.94 0.28 Q 342.13 0.15 632.39 0.28 Q 634.61 0.28 636.79 0.60 Q 638.96 0.93 641.16 1.22 Q 648.76 2.22 654.59 4.83 C 673.11 13.09 686.78 30.49 688.14 51.21 C 688.36 54.57 688.70 57.84 688.68 61.17 C 687.90 164.00 688.33 266.91 688.34 377.00 C 688.34 400.58 688.96 425.39 688.63 450.23 Q 688.48 461.71 688.10 465.77 Q 685.80 490.18 665.06 505.56 Q 655.18 512.88 642.98 514.86 Q 638.97 515.51 634.94 516.00 Z M 334.10 310.30 C 342.85 313.61 353.12 311.46 359.91 305.14 Q 449.94 221.31 538.94 139.19 Q 590.35 91.76 640.87 44.81 Q 641.65 44.09 640.92 43.31 Q 639.77 42.10 637.50 42.10 Q 342.71 42.00 55.07 42.00 C 51.31 42.00 49.16 42.87 46.62 45.30 Q 46.07 45.83 46.64 46.34 Q 49.72 49.04 52.80 51.85 Q 87.11 83.20 129.76 122.99 Q 221.32 208.41 307.48 288.15 Q 315.13 295.23 323.19 302.66 Q 329.65 308.62 334.10 310.30 Z M 645.83 99.42 Q 645.83 99.21 645.62 99.05 A 0.35 0.35 0.0 0 0 645.19 99.04 C 640.46 102.69 636.66 106.98 632.16 111.17 Q 559.04 179.10 482.13 251.13 Q 481.40 251.83 480.58 252.37 Q 479.41 253.16 480.49 254.08 Q 483.05 256.25 485.02 258.10 Q 526.60 297.06 574.53 342.45 Q 583.80 351.22 590.81 358.11 C 595.89 363.10 601.29 367.82 606.36 372.80 Q 612.31 378.64 618.00 383.81 C 624.32 389.53 630.10 395.56 636.45 401.30 Q 640.96 405.37 645.19 409.77 A 0.45 0.45 0.0 0 0 645.61 409.91 Q 646.00 409.84 646.00 409.55 Q 646.01 254.74 645.98 100.05 Q 645.98 99.85 645.89 99.67 Q 645.83 99.56 645.83 99.42 Z M 43.55 409.92 Q 49.95 403.53 57.41 396.43 Q 124.30 332.81 189.53 270.26 Q 196.95 263.14 205.14 255.52 Q 206.74 254.04 205.12 252.58 Q 201.97 249.72 199.14 247.07 Q 120.33 173.27 50.73 108.81 Q 46.56 104.95 42.75 101.37 Q 42.58 101.21 42.58 101.37 L 42.38 409.43 Q 42.38 411.09 43.55 409.92 Z M 346.50 354.90 C 325.61 355.85 308.76 348.28 293.48 333.89 Q 272.62 314.26 241.99 285.66 Q 240.70 284.46 239.21 283.33 A 1.52 1.51 41.9 0 0 237.28 283.43 C 234.71 285.76 232.28 288.38 229.79 290.75 Q 149.90 367.06 71.53 442.29 Q 61.63 451.80 53.88 458.88 Q 49.51 462.88 45.64 466.77 Q 44.60 467.82 45.61 468.90 C 49.74 473.30 53.38 473.00 60.05 473.00 Q 346.52 473.00 632.99 473.00 C 637.70 473.00 640.31 472.53 642.82 468.72 Q 643.69 467.39 642.54 466.31 Q 550.23 378.98 457.98 291.46 Q 452.84 286.58 449.27 282.66 A 1.68 1.68 0.0 0 0 446.89 282.56 C 429.55 298.59 412.34 314.85 395.15 331.01 Q 385.26 340.31 379.84 343.81 Q 363.88 354.11 346.50 354.90 Z"/></g></svg>